<?xml version="1.0" encoding="utf-8"?>
<!-- Generator: Adobe Illustrator 22.1.0, SVG Export Plug-In . SVG Version: 6.00 Build 0)  -->
<svg version="1.1" id="Logo_x5F_RTMG" xmlns="http://www.w3.org/2000/svg" xmlns:xlink="http://www.w3.org/1999/xlink" x="0px"
	 y="0px" viewBox="0 0 214 96" style="enable-background:new 0 0 214 96;" xml:space="preserve">
<style type="text/css">
	.st0{fill:#FFFFFF;}
	.st1{fill:#FFFFFF;}
	.st2{fill:#FFFFFF;}
	.st3{fill:#FFFFFF;}
	.st4{fill:#FFFFFF;}
	.st5{fill:#FFFFFF;}
	.st6{fill:#FFFFFF;}
</style>
<path class="st0" d="M116.64,79.567c-1.707,0.912-3.616,1.368-5.728,1.368c-1.069,0-2.05-0.173-2.942-0.518
	c-0.893-0.345-1.662-0.834-2.307-1.466c-0.645-0.632-1.151-1.391-1.515-2.277c-0.365-0.886-0.548-1.87-0.548-2.952
	c0-1.107,0.182-2.114,0.548-3.02c0.365-0.906,0.87-1.678,1.515-2.317c0.645-0.638,1.414-1.13,2.307-1.476
	c0.892-0.345,1.873-0.518,2.942-0.518c1.056,0,2.046,0.127,2.971,0.381c0.925,0.254,1.753,0.707,2.483,1.359l-1.818,1.838
	c-0.443-0.43-0.981-0.762-1.613-0.997c-0.632-0.235-1.3-0.352-2.004-0.352c-0.717,0-1.365,0.127-1.945,0.381
	c-0.58,0.254-1.079,0.606-1.496,1.056c-0.417,0.45-0.74,0.974-0.968,1.574c-0.228,0.6-0.342,1.245-0.342,1.935
	c0,0.743,0.114,1.427,0.342,2.053c0.228,0.626,0.55,1.167,0.968,1.622c0.417,0.456,0.916,0.815,1.496,1.075
	c0.58,0.261,1.228,0.391,1.945,0.391c0.626,0,1.215-0.058,1.769-0.176c0.554-0.117,1.046-0.3,1.476-0.547v-3.265h-2.835V72.49h5.298
	V79.567z M125.045,80.583c-0.026-0.247-0.042-0.492-0.049-0.733c-0.006-0.241-0.01-0.485-0.01-0.733h-0.039
	c-0.144,0.248-0.326,0.476-0.548,0.684c-0.222,0.209-0.469,0.388-0.743,0.538c-0.273,0.15-0.564,0.267-0.87,0.352
	c-0.306,0.085-0.609,0.127-0.909,0.127c-1.173,0-2.04-0.309-2.6-0.929c-0.56-0.619-0.841-1.502-0.841-2.649v-5.806h1.29v5.063
	c0,0.508,0.039,0.958,0.117,1.349c0.078,0.391,0.212,0.72,0.401,0.987c0.189,0.267,0.443,0.469,0.762,0.606
	c0.319,0.137,0.72,0.205,1.202,0.205c0.065,0,0.247-0.026,0.547-0.078c0.3-0.052,0.616-0.196,0.948-0.43
	c0.332-0.235,0.628-0.587,0.89-1.056c0.26-0.469,0.391-1.121,0.391-1.955v-4.692h1.29v7.135c0,0.248,0.01,0.56,0.029,0.938
	c0.019,0.378,0.042,0.736,0.068,1.075H125.045z M134.195,74.973v-0.235c0-1.577-0.782-2.365-2.346-2.365
	c-1.069,0-2,0.359-2.795,1.075l-0.782-0.919c0.86-0.886,2.15-1.329,3.87-1.329c0.443,0,0.87,0.065,1.281,0.196
	c0.41,0.13,0.765,0.329,1.065,0.596c0.299,0.267,0.541,0.603,0.723,1.007c0.182,0.404,0.274,0.886,0.274,1.447v4.086
	c0,0.352,0.016,0.72,0.049,1.105c0.033,0.384,0.069,0.701,0.108,0.948h-1.251c-0.039-0.221-0.069-0.462-0.088-0.723
	c-0.02-0.261-0.029-0.515-0.029-0.762h-0.039c-0.378,0.613-0.825,1.052-1.339,1.319c-0.515,0.267-1.143,0.401-1.886,0.401
	c-0.404,0-0.795-0.056-1.173-0.166c-0.378-0.111-0.714-0.28-1.007-0.508c-0.293-0.228-0.528-0.508-0.704-0.841
	c-0.176-0.332-0.264-0.72-0.264-1.163c0-0.743,0.192-1.326,0.577-1.75c0.384-0.423,0.866-0.739,1.446-0.948
	c0.58-0.208,1.199-0.339,1.857-0.391c0.658-0.052,1.261-0.078,1.808-0.078H134.195z M133.53,76.029
	c-0.326,0-0.733,0.017-1.222,0.049c-0.489,0.033-0.958,0.111-1.407,0.235c-0.45,0.124-0.834,0.316-1.154,0.577
	c-0.319,0.261-0.479,0.619-0.479,1.075c0,0.3,0.062,0.557,0.186,0.772c0.123,0.215,0.29,0.391,0.498,0.528
	c0.208,0.137,0.44,0.235,0.694,0.293c0.254,0.058,0.511,0.088,0.772,0.088c0.47,0,0.877-0.078,1.222-0.235
	c0.345-0.156,0.636-0.368,0.87-0.635c0.235-0.267,0.407-0.58,0.518-0.938c0.11-0.358,0.166-0.739,0.166-1.144v-0.665H133.53z
	 M142.228,72.608h-2.639v5.395c0,0.339,0.033,0.616,0.098,0.831c0.065,0.215,0.156,0.381,0.273,0.499
	c0.117,0.117,0.258,0.199,0.42,0.244c0.163,0.046,0.342,0.068,0.538,0.068c0.221,0,0.45-0.032,0.684-0.098
	c0.235-0.065,0.45-0.15,0.645-0.254l0.059,1.193c-0.483,0.221-1.063,0.332-1.74,0.332c-0.248,0-0.505-0.033-0.772-0.098
	c-0.267-0.065-0.511-0.189-0.733-0.371c-0.221-0.182-0.404-0.43-0.547-0.743c-0.144-0.313-0.215-0.723-0.215-1.232v-5.767h-1.935
	v-1.173h1.935v-2.58h1.29v2.58h2.639V72.608z M143.91,76.361c0.039,0.456,0.15,0.886,0.332,1.29
	c0.182,0.404,0.424,0.752,0.723,1.046c0.3,0.293,0.645,0.525,1.036,0.694c0.391,0.17,0.814,0.254,1.271,0.254
	c0.691,0,1.287-0.159,1.789-0.479c0.502-0.319,0.883-0.687,1.143-1.104l0.997,0.821c-0.548,0.691-1.15,1.186-1.808,1.486
	c-0.658,0.3-1.365,0.45-2.121,0.45c-0.678,0-1.307-0.121-1.886-0.362c-0.58-0.241-1.079-0.577-1.496-1.007
	c-0.417-0.43-0.746-0.938-0.987-1.525c-0.242-0.586-0.362-1.225-0.362-1.916c0-0.691,0.117-1.329,0.352-1.916
	c0.235-0.587,0.561-1.095,0.978-1.525c0.417-0.43,0.906-0.765,1.466-1.007c0.561-0.241,1.167-0.362,1.818-0.362
	c0.691,0,1.31,0.124,1.857,0.371c0.547,0.248,1.007,0.577,1.378,0.987c0.371,0.41,0.655,0.893,0.85,1.447
	c0.195,0.554,0.293,1.144,0.293,1.769v0.587H143.91z M150.126,75.305c0-0.873-0.261-1.58-0.782-2.121
	c-0.522-0.541-1.251-0.811-2.19-0.811c-0.417,0-0.821,0.082-1.212,0.245c-0.391,0.163-0.733,0.381-1.026,0.655
	c-0.293,0.274-0.528,0.587-0.704,0.938c-0.176,0.352-0.264,0.717-0.264,1.095H150.126z M152.902,73.468
	c0-0.339-0.01-0.678-0.029-1.016c-0.02-0.339-0.043-0.678-0.068-1.017h1.388v1.388h0.039c0.313-0.534,0.746-0.938,1.3-1.212
	c0.554-0.274,1.105-0.41,1.652-0.41c0.247,0,0.511,0.026,0.792,0.078c0.28,0.052,0.551,0.147,0.812,0.284
	c0.26,0.137,0.505,0.329,0.733,0.577c0.228,0.248,0.42,0.567,0.576,0.958c0.261-0.587,0.675-1.049,1.242-1.388
	c0.567-0.339,1.157-0.508,1.769-0.508c1.173,0,2.039,0.31,2.6,0.929c0.56,0.619,0.841,1.502,0.841,2.649v5.806h-1.29v-5.337
	c0-0.925-0.163-1.635-0.489-2.131c-0.326-0.495-0.932-0.743-1.818-0.743c-0.482,0-0.886,0.095-1.212,0.284
	c-0.326,0.189-0.59,0.44-0.792,0.753c-0.202,0.313-0.349,0.668-0.44,1.065c-0.091,0.398-0.137,0.811-0.137,1.241v4.868h-1.29v-5.337
	c0-0.925-0.163-1.635-0.489-2.131c-0.326-0.495-0.932-0.743-1.818-0.743c-0.078,0-0.258,0.026-0.538,0.078
	c-0.28,0.052-0.57,0.195-0.87,0.43s-0.57,0.587-0.811,1.056c-0.241,0.469-0.361,1.121-0.361,1.955v4.692h-1.29V73.468z
	 M174.445,74.973v-0.235c0-1.577-0.782-2.365-2.346-2.365c-1.069,0-2,0.359-2.795,1.075l-0.782-0.919
	c0.86-0.886,2.15-1.329,3.87-1.329c0.443,0,0.87,0.065,1.281,0.196c0.41,0.13,0.765,0.329,1.065,0.596
	c0.299,0.267,0.541,0.603,0.723,1.007c0.182,0.404,0.274,0.886,0.274,1.447v4.086c0,0.352,0.016,0.72,0.049,1.105
	c0.033,0.384,0.069,0.701,0.108,0.948h-1.251c-0.039-0.221-0.069-0.462-0.088-0.723c-0.02-0.261-0.029-0.515-0.029-0.762h-0.039
	c-0.378,0.613-0.825,1.052-1.339,1.319c-0.515,0.267-1.143,0.401-1.886,0.401c-0.404,0-0.795-0.056-1.173-0.166
	c-0.378-0.111-0.714-0.28-1.007-0.508c-0.293-0.228-0.528-0.508-0.704-0.841c-0.176-0.332-0.264-0.72-0.264-1.163
	c0-0.743,0.192-1.326,0.577-1.75c0.384-0.423,0.866-0.739,1.446-0.948c0.58-0.208,1.199-0.339,1.857-0.391
	c0.658-0.052,1.261-0.078,1.808-0.078H174.445z M173.78,76.029c-0.326,0-0.733,0.017-1.222,0.049
	c-0.489,0.033-0.958,0.111-1.407,0.235c-0.45,0.124-0.834,0.316-1.154,0.577c-0.319,0.261-0.479,0.619-0.479,1.075
	c0,0.3,0.062,0.557,0.186,0.772c0.123,0.215,0.29,0.391,0.498,0.528c0.208,0.137,0.44,0.235,0.694,0.293
	c0.254,0.058,0.511,0.088,0.772,0.088c0.47,0,0.877-0.078,1.222-0.235c0.345-0.156,0.636-0.368,0.87-0.635
	c0.235-0.267,0.407-0.58,0.518-0.938c0.11-0.358,0.166-0.739,0.166-1.144v-0.665H173.78z M179.332,80.583h-1.29V65.805h1.29V80.583z
	 M187.327,74.973v-0.235c0-1.577-0.782-2.365-2.346-2.365c-1.069,0-2,0.359-2.795,1.075l-0.782-0.919
	c0.86-0.886,2.15-1.329,3.87-1.329c0.443,0,0.87,0.065,1.281,0.196c0.41,0.13,0.765,0.329,1.065,0.596
	c0.299,0.267,0.541,0.603,0.723,1.007s0.274,0.886,0.274,1.447v4.086c0,0.352,0.016,0.72,0.049,1.105
	c0.032,0.384,0.069,0.701,0.108,0.948h-1.251c-0.039-0.221-0.069-0.462-0.088-0.723c-0.02-0.261-0.029-0.515-0.029-0.762h-0.039
	c-0.378,0.613-0.825,1.052-1.339,1.319c-0.515,0.267-1.143,0.401-1.886,0.401c-0.404,0-0.795-0.056-1.173-0.166
	c-0.378-0.111-0.714-0.28-1.007-0.508c-0.293-0.228-0.528-0.508-0.703-0.841c-0.176-0.332-0.264-0.72-0.264-1.163
	c0-0.743,0.192-1.326,0.577-1.75c0.384-0.423,0.866-0.739,1.446-0.948c0.58-0.208,1.199-0.339,1.857-0.391
	c0.658-0.052,1.261-0.078,1.808-0.078H187.327z M186.662,76.029c-0.326,0-0.733,0.017-1.222,0.049
	c-0.489,0.033-0.958,0.111-1.407,0.235c-0.45,0.124-0.834,0.316-1.154,0.577c-0.319,0.261-0.479,0.619-0.479,1.075
	c0,0.3,0.062,0.557,0.186,0.772c0.123,0.215,0.29,0.391,0.498,0.528c0.208,0.137,0.44,0.235,0.694,0.293
	c0.254,0.058,0.511,0.088,0.772,0.088c0.47,0,0.877-0.078,1.222-0.235c0.345-0.156,0.636-0.368,0.87-0.635
	c0.235-0.267,0.407-0.58,0.518-0.938c0.11-0.358,0.166-0.739,0.166-1.144v-0.665H186.662z"/>
<path class="st1" d="M102.536,48.668h3.753l3.695,9.696l3.734-9.696h3.714v13.84h-2.346V51.013h-0.039l-4.203,11.495h-1.72
	l-4.203-11.495h-0.039v11.495h-2.346V48.668z M120.365,58.286c0.039,0.456,0.15,0.886,0.332,1.29
	c0.182,0.404,0.423,0.752,0.723,1.046c0.3,0.293,0.645,0.525,1.036,0.694c0.391,0.17,0.814,0.254,1.271,0.254
	c0.691,0,1.287-0.159,1.789-0.479c0.501-0.319,0.883-0.687,1.144-1.104l0.997,0.821c-0.547,0.691-1.15,1.186-1.808,1.486
	c-0.658,0.3-1.365,0.45-2.121,0.45c-0.678,0-1.307-0.121-1.886-0.362c-0.58-0.241-1.079-0.577-1.496-1.007
	c-0.417-0.43-0.746-0.938-0.987-1.525c-0.241-0.586-0.362-1.225-0.362-1.916c0-0.691,0.117-1.329,0.352-1.916
	c0.235-0.587,0.56-1.095,0.977-1.525c0.417-0.43,0.906-0.765,1.466-1.007c0.56-0.241,1.166-0.362,1.818-0.362
	c0.691,0,1.31,0.124,1.857,0.371c0.547,0.248,1.007,0.577,1.378,0.987s0.655,0.893,0.85,1.447c0.196,0.554,0.293,1.144,0.293,1.769
	v0.587H120.365z M126.581,57.23c0-0.873-0.261-1.58-0.782-2.121c-0.521-0.541-1.251-0.811-2.189-0.811
	c-0.417,0-0.821,0.082-1.212,0.245c-0.391,0.163-0.733,0.381-1.026,0.655c-0.293,0.274-0.528,0.587-0.704,0.938
	c-0.176,0.352-0.264,0.717-0.264,1.095H126.581z M123.453,51.483H122.3l1.955-2.815h1.779L123.453,51.483z M131.722,57.621
	l-3.323-4.262h1.759l2.541,3.421l2.424-3.421h1.603l-3.186,4.262l3.831,4.887h-1.759l-3.069-4.007l-2.952,4.007h-1.642
	L131.722,57.621z M139.678,49.841c0,0.274-0.097,0.499-0.293,0.674c-0.195,0.176-0.41,0.264-0.645,0.264s-0.45-0.088-0.645-0.264
	c-0.195-0.176-0.293-0.401-0.293-0.674c0-0.274,0.098-0.498,0.293-0.674c0.196-0.176,0.411-0.264,0.645-0.264
	s0.45,0.088,0.645,0.264C139.581,49.342,139.678,49.567,139.678,49.841z M139.385,62.508h-1.29v-9.149h1.29V62.508z M148.182,55.51
	c-0.222-0.339-0.531-0.626-0.929-0.86c-0.398-0.235-0.851-0.352-1.359-0.352c-0.535-0.013-1.013,0.072-1.437,0.254
	c-0.424,0.183-0.785,0.437-1.085,0.762c-0.3,0.326-0.528,0.713-0.684,1.163c-0.156,0.45-0.235,0.935-0.235,1.456
	c0,0.521,0.078,1.007,0.235,1.456c0.156,0.45,0.384,0.838,0.684,1.163c0.3,0.326,0.661,0.58,1.085,0.762
	c0.424,0.183,0.903,0.267,1.437,0.254c0.508,0,0.961-0.117,1.359-0.352c0.397-0.235,0.707-0.521,0.929-0.86l1.056,0.801
	c-0.457,0.535-0.971,0.929-1.544,1.183c-0.574,0.254-1.173,0.387-1.799,0.401c-0.743,0.013-1.414-0.101-2.013-0.342
	c-0.6-0.241-1.111-0.577-1.535-1.007c-0.424-0.43-0.746-0.941-0.968-1.535c-0.222-0.593-0.332-1.235-0.332-1.926
	c0-0.691,0.11-1.332,0.332-1.925c0.222-0.593,0.544-1.105,0.968-1.535c0.423-0.43,0.935-0.765,1.535-1.007
	c0.599-0.241,1.271-0.355,2.013-0.342c0.626,0.013,1.225,0.147,1.799,0.401c0.573,0.254,1.088,0.648,1.544,1.183L148.182,55.51z
	 M159.208,57.934c0,0.691-0.121,1.329-0.362,1.916c-0.241,0.587-0.576,1.095-1.007,1.525c-0.43,0.43-0.942,0.766-1.535,1.007
	c-0.593,0.241-1.248,0.362-1.965,0.362c-0.704,0-1.352-0.121-1.945-0.362c-0.593-0.241-1.104-0.577-1.535-1.007
	c-0.43-0.43-0.766-0.938-1.007-1.525c-0.242-0.586-0.362-1.225-0.362-1.916c0-0.691,0.12-1.329,0.362-1.916
	c0.241-0.587,0.576-1.095,1.007-1.525s0.942-0.765,1.535-1.007c0.593-0.241,1.241-0.362,1.945-0.362
	c0.717,0,1.371,0.121,1.965,0.362c0.593,0.241,1.104,0.577,1.535,1.007s0.765,0.938,1.007,1.525S159.208,57.243,159.208,57.934z
	 M157.8,57.934c0-0.508-0.082-0.984-0.245-1.427c-0.163-0.443-0.394-0.827-0.694-1.153c-0.3-0.326-0.661-0.583-1.085-0.772
	c-0.424-0.189-0.903-0.284-1.437-0.284c-0.535,0-1.013,0.095-1.437,0.284c-0.424,0.189-0.782,0.447-1.075,0.772
	c-0.293,0.326-0.521,0.711-0.684,1.153c-0.163,0.443-0.245,0.919-0.245,1.427s0.081,0.984,0.245,1.427
	c0.163,0.443,0.391,0.828,0.684,1.153c0.293,0.326,0.652,0.583,1.075,0.772c0.424,0.189,0.903,0.284,1.437,0.284
	c0.534,0,1.013-0.094,1.437-0.284c0.424-0.189,0.785-0.446,1.085-0.772c0.3-0.326,0.531-0.71,0.694-1.153
	C157.719,58.918,157.8,58.442,157.8,57.934z"/>
<path class="st2" d="M108.511,33.087h-4.242v-2.229h10.947v2.229h-4.242v11.612h-2.463V33.087z M115.529,38.405
	c0-0.404-0.01-0.814-0.029-1.232c-0.019-0.417-0.036-0.958-0.049-1.622h1.271v1.701h0.039c0.091-0.247,0.222-0.485,0.391-0.713
	c0.169-0.228,0.375-0.433,0.616-0.616c0.241-0.182,0.521-0.329,0.841-0.44c0.319-0.11,0.681-0.166,1.085-0.166
	c0.365,0,0.684,0.039,0.958,0.117l-0.254,1.271c-0.17-0.065-0.417-0.098-0.743-0.098c-0.495,0-0.919,0.095-1.271,0.284
	c-0.352,0.189-0.645,0.43-0.88,0.723c-0.235,0.293-0.407,0.609-0.518,0.948c-0.111,0.339-0.166,0.665-0.166,0.977v5.161h-1.29
	V38.405z M126.378,39.089v-0.235c0-1.577-0.782-2.365-2.346-2.365c-1.069,0-2.001,0.359-2.796,1.075l-0.782-0.919
	c0.86-0.886,2.15-1.329,3.87-1.329c0.443,0,0.87,0.065,1.28,0.196c0.41,0.13,0.765,0.329,1.065,0.596
	c0.3,0.267,0.541,0.603,0.723,1.007c0.182,0.404,0.274,0.886,0.274,1.447v4.086c0,0.352,0.016,0.72,0.049,1.105
	c0.032,0.384,0.068,0.701,0.107,0.948h-1.251c-0.039-0.221-0.068-0.462-0.088-0.723c-0.02-0.261-0.029-0.515-0.029-0.762h-0.039
	c-0.378,0.613-0.825,1.052-1.339,1.319c-0.515,0.267-1.144,0.401-1.886,0.401c-0.404,0-0.795-0.056-1.173-0.166
	c-0.378-0.111-0.713-0.28-1.007-0.508c-0.293-0.228-0.528-0.508-0.704-0.841c-0.176-0.332-0.264-0.72-0.264-1.163
	c0-0.743,0.192-1.326,0.577-1.75c0.384-0.423,0.867-0.739,1.447-0.948c0.58-0.208,1.199-0.339,1.857-0.391
	c0.658-0.052,1.261-0.078,1.808-0.078H126.378z M125.714,40.144c-0.326,0-0.733,0.017-1.222,0.049
	c-0.489,0.033-0.958,0.111-1.408,0.235c-0.45,0.124-0.834,0.316-1.153,0.577c-0.319,0.261-0.479,0.619-0.479,1.075
	c0,0.3,0.062,0.557,0.186,0.772c0.124,0.215,0.29,0.391,0.499,0.528c0.208,0.137,0.44,0.235,0.694,0.293
	c0.254,0.058,0.511,0.088,0.772,0.088c0.469,0,0.876-0.078,1.222-0.235c0.345-0.156,0.635-0.368,0.87-0.635
	c0.235-0.267,0.407-0.58,0.518-0.938c0.111-0.358,0.166-0.739,0.166-1.144v-0.665H125.714z M130.523,35.55
	c0.026,0.248,0.042,0.492,0.049,0.733c0.007,0.241,0.01,0.486,0.01,0.733h0.039c0.143-0.247,0.326-0.475,0.547-0.684
	c0.221-0.208,0.469-0.387,0.743-0.538c0.274-0.15,0.564-0.267,0.87-0.352c0.306-0.085,0.609-0.127,0.909-0.127
	c1.173,0,2.039,0.31,2.6,0.929c0.56,0.619,0.841,1.502,0.841,2.649v5.806h-1.29v-5.063c0-1.017-0.176-1.795-0.528-2.336
	c-0.352-0.541-1.004-0.811-1.955-0.811c-0.065,0-0.248,0.026-0.547,0.078c-0.3,0.052-0.616,0.195-0.948,0.43
	s-0.629,0.587-0.89,1.056c-0.261,0.469-0.391,1.121-0.391,1.955v4.692h-1.29v-7.135c0-0.248-0.01-0.56-0.029-0.938
	c-0.02-0.378-0.042-0.736-0.068-1.075H130.523z M143.64,37.72c-0.196-0.378-0.457-0.678-0.782-0.899
	c-0.326-0.222-0.723-0.332-1.192-0.332c-0.222,0-0.447,0.026-0.674,0.078c-0.228,0.052-0.433,0.134-0.616,0.244
	c-0.183,0.111-0.329,0.251-0.44,0.42c-0.111,0.17-0.166,0.378-0.166,0.626c0,0.43,0.15,0.743,0.45,0.938
	c0.3,0.195,0.749,0.365,1.349,0.508l1.31,0.313c0.639,0.144,1.17,0.434,1.593,0.87c0.424,0.437,0.636,0.981,0.636,1.632
	c0,0.496-0.102,0.922-0.303,1.28c-0.202,0.359-0.47,0.652-0.802,0.88c-0.332,0.228-0.713,0.394-1.144,0.499
	c-0.43,0.104-0.867,0.156-1.31,0.156c-0.704,0-1.359-0.134-1.965-0.401c-0.606-0.267-1.124-0.726-1.554-1.378l1.114-0.762
	c0.261,0.417,0.59,0.75,0.987,0.997c0.397,0.248,0.87,0.371,1.417,0.371c0.26,0,0.521-0.029,0.782-0.088
	c0.26-0.059,0.492-0.15,0.694-0.274c0.201-0.124,0.365-0.284,0.488-0.479c0.124-0.196,0.186-0.423,0.186-0.684
	c0-0.456-0.17-0.785-0.509-0.987c-0.339-0.202-0.749-0.362-1.231-0.479l-1.251-0.293c-0.157-0.039-0.368-0.104-0.635-0.196
	c-0.267-0.091-0.528-0.228-0.782-0.41c-0.254-0.182-0.473-0.42-0.655-0.714c-0.183-0.293-0.274-0.655-0.274-1.085
	c0-0.469,0.094-0.88,0.284-1.232c0.189-0.352,0.443-0.638,0.762-0.86c0.319-0.222,0.681-0.388,1.085-0.499
	c0.404-0.11,0.821-0.166,1.251-0.166c0.638,0,1.232,0.124,1.779,0.371c0.548,0.248,0.971,0.671,1.271,1.271L143.64,37.72z
	 M150.013,36.723h-2.17v7.976h-1.29v-7.976h-1.935V35.55h1.935v-2.502c0-1.212,0.28-2.075,0.841-2.59
	c0.56-0.515,1.303-0.772,2.229-0.772c0.182,0,0.368,0.013,0.557,0.039c0.189,0.026,0.374,0.059,0.557,0.098l-0.235,1.173
	c-0.156-0.039-0.319-0.071-0.489-0.098c-0.169-0.026-0.339-0.039-0.508-0.039c-0.352,0-0.639,0.059-0.86,0.176
	c-0.222,0.117-0.391,0.284-0.508,0.499c-0.117,0.215-0.195,0.466-0.235,0.752c-0.039,0.287-0.058,0.593-0.058,0.919v2.346h2.17
	V36.723z M150.306,38.405c0-0.404-0.01-0.814-0.029-1.232c-0.02-0.417-0.036-0.958-0.049-1.622h1.271v1.701h0.039
	c0.091-0.247,0.221-0.485,0.391-0.713c0.169-0.228,0.374-0.433,0.616-0.616c0.241-0.182,0.521-0.329,0.84-0.44
	c0.319-0.11,0.681-0.166,1.085-0.166c0.365,0,0.684,0.039,0.958,0.117l-0.254,1.271c-0.169-0.065-0.417-0.098-0.743-0.098
	c-0.496,0-0.919,0.095-1.271,0.284c-0.352,0.189-0.645,0.43-0.88,0.723c-0.234,0.293-0.407,0.609-0.518,0.948
	c-0.111,0.339-0.166,0.665-0.166,0.977v5.161h-1.29V38.405z M164.185,40.125c0,0.691-0.121,1.329-0.362,1.916
	c-0.241,0.587-0.576,1.095-1.007,1.525c-0.43,0.43-0.942,0.766-1.535,1.007c-0.593,0.241-1.248,0.362-1.965,0.362
	c-0.704,0-1.352-0.121-1.945-0.362c-0.593-0.241-1.104-0.577-1.535-1.007c-0.43-0.43-0.766-0.938-1.007-1.525
	c-0.242-0.586-0.362-1.225-0.362-1.916c0-0.691,0.12-1.329,0.362-1.916c0.241-0.587,0.576-1.095,1.007-1.525
	s0.942-0.765,1.535-1.007c0.593-0.241,1.241-0.362,1.945-0.362c0.716,0,1.371,0.121,1.965,0.362
	c0.593,0.241,1.104,0.577,1.535,1.007s0.765,0.938,1.007,1.525S164.185,39.434,164.185,40.125z M162.778,40.125
	c0-0.508-0.082-0.984-0.245-1.427c-0.163-0.443-0.394-0.827-0.694-1.153c-0.3-0.326-0.661-0.583-1.085-0.772
	c-0.424-0.189-0.903-0.284-1.437-0.284c-0.535,0-1.013,0.095-1.437,0.284c-0.424,0.189-0.782,0.447-1.075,0.772
	c-0.293,0.326-0.521,0.711-0.684,1.153c-0.163,0.443-0.245,0.919-0.245,1.427s0.081,0.984,0.245,1.427
	c0.163,0.443,0.391,0.828,0.684,1.153c0.293,0.326,0.652,0.583,1.075,0.772c0.424,0.189,0.903,0.284,1.437,0.284
	c0.534,0,1.013-0.094,1.437-0.284c0.424-0.189,0.785-0.446,1.085-0.772c0.3-0.326,0.531-0.71,0.694-1.153
	C162.696,41.109,162.778,40.633,162.778,40.125z M166.394,35.55c0.026,0.248,0.042,0.492,0.049,0.733
	c0.006,0.241,0.01,0.486,0.01,0.733h0.039c0.143-0.247,0.326-0.475,0.548-0.684c0.221-0.208,0.469-0.387,0.743-0.538
	c0.274-0.15,0.564-0.267,0.87-0.352c0.306-0.085,0.609-0.127,0.909-0.127c1.173,0,2.039,0.31,2.6,0.929
	c0.56,0.619,0.841,1.502,0.841,2.649v5.806h-1.29v-5.063c0-1.017-0.176-1.795-0.528-2.336c-0.352-0.541-1.004-0.811-1.955-0.811
	c-0.065,0-0.248,0.026-0.548,0.078c-0.3,0.052-0.616,0.195-0.948,0.43s-0.629,0.587-0.89,1.056s-0.391,1.121-0.391,1.955v4.692
	h-1.29v-7.135c0-0.248-0.01-0.56-0.029-0.938c-0.02-0.378-0.043-0.736-0.068-1.075H166.394z M179.393,36.723h-2.639v5.395
	c0,0.339,0.032,0.616,0.098,0.831c0.065,0.215,0.156,0.381,0.273,0.499c0.117,0.117,0.258,0.199,0.42,0.244
	c0.163,0.046,0.342,0.068,0.538,0.068c0.221,0,0.45-0.032,0.684-0.098c0.235-0.065,0.45-0.15,0.645-0.254l0.059,1.193
	c-0.483,0.221-1.063,0.332-1.74,0.332c-0.248,0-0.505-0.033-0.772-0.098c-0.267-0.065-0.511-0.189-0.733-0.371
	c-0.221-0.182-0.404-0.43-0.547-0.743c-0.144-0.313-0.215-0.723-0.215-1.232v-5.767h-1.935V35.55h1.935v-2.58h1.29v2.58h2.639
	V36.723z M180.683,40.477c0.039,0.456,0.15,0.886,0.332,1.29s0.424,0.752,0.723,1.046s0.645,0.525,1.036,0.694
	c0.391,0.17,0.814,0.254,1.271,0.254c0.691,0,1.287-0.159,1.789-0.479c0.502-0.319,0.883-0.687,1.143-1.104l0.997,0.821
	c-0.548,0.691-1.15,1.186-1.808,1.486c-0.658,0.3-1.365,0.45-2.121,0.45c-0.678,0-1.307-0.121-1.886-0.362
	c-0.58-0.241-1.079-0.577-1.496-1.007c-0.417-0.43-0.746-0.938-0.987-1.525c-0.242-0.586-0.362-1.225-0.362-1.916
	c0-0.691,0.117-1.329,0.352-1.916c0.235-0.587,0.561-1.095,0.978-1.525c0.417-0.43,0.906-0.765,1.466-1.007
	c0.561-0.241,1.167-0.362,1.818-0.362c0.691,0,1.31,0.124,1.857,0.371c0.547,0.248,1.007,0.577,1.378,0.987
	c0.371,0.41,0.655,0.893,0.85,1.447c0.195,0.554,0.293,1.144,0.293,1.769v0.587H180.683z M186.9,39.421
	c0-0.873-0.261-1.58-0.782-2.121c-0.522-0.541-1.251-0.811-2.19-0.811c-0.417,0-0.821,0.082-1.212,0.245
	c-0.391,0.163-0.733,0.381-1.026,0.655c-0.293,0.274-0.528,0.587-0.704,0.938c-0.176,0.352-0.264,0.717-0.264,1.095H186.9z
	 M189.422,38.405c0-0.404-0.01-0.814-0.029-1.232c-0.02-0.417-0.036-0.958-0.049-1.622h1.271v1.701h0.039
	c0.091-0.247,0.221-0.485,0.391-0.713c0.169-0.228,0.375-0.433,0.616-0.616c0.241-0.182,0.521-0.329,0.84-0.44
	c0.319-0.11,0.681-0.166,1.085-0.166c0.365,0,0.684,0.039,0.958,0.117l-0.254,1.271c-0.169-0.065-0.417-0.098-0.743-0.098
	c-0.496,0-0.919,0.095-1.271,0.284c-0.352,0.189-0.645,0.43-0.88,0.723c-0.234,0.293-0.407,0.609-0.518,0.948
	c-0.111,0.339-0.166,0.665-0.166,0.977v5.161h-1.29V38.405z M196.283,32.032c0,0.274-0.098,0.499-0.293,0.674
	c-0.196,0.176-0.411,0.264-0.645,0.264c-0.234,0-0.45-0.088-0.645-0.264c-0.195-0.176-0.293-0.401-0.293-0.674
	c0-0.274,0.098-0.498,0.293-0.674c0.195-0.176,0.411-0.264,0.645-0.264c0.235,0,0.45,0.088,0.645,0.264
	C196.185,31.533,196.283,31.758,196.283,32.032z M195.99,44.699h-1.29V35.55h1.29V44.699z M204.004,36.489l-5.356,7.038h5.552v1.173
	h-7.429v-0.938l5.356-7.037h-5.083V35.55h6.959V36.489z M210.554,39.089v-0.235c0-1.577-0.782-2.365-2.346-2.365
	c-1.069,0-2,0.359-2.795,1.075l-0.782-0.919c0.86-0.886,2.15-1.329,3.87-1.329c0.443,0,0.87,0.065,1.281,0.196
	c0.41,0.13,0.765,0.329,1.065,0.596c0.299,0.267,0.541,0.603,0.723,1.007c0.182,0.404,0.274,0.886,0.274,1.447v4.086
	c0,0.352,0.016,0.72,0.049,1.105c0.032,0.384,0.069,0.701,0.108,0.948h-1.251c-0.039-0.221-0.069-0.462-0.088-0.723
	c-0.02-0.261-0.029-0.515-0.029-0.762h-0.039c-0.378,0.613-0.825,1.052-1.339,1.319c-0.515,0.267-1.143,0.401-1.886,0.401
	c-0.404,0-0.795-0.056-1.173-0.166c-0.378-0.111-0.714-0.28-1.007-0.508c-0.293-0.228-0.528-0.508-0.704-0.841
	c-0.176-0.332-0.264-0.72-0.264-1.163c0-0.743,0.192-1.326,0.577-1.75c0.384-0.423,0.866-0.739,1.446-0.948
	c0.58-0.208,1.199-0.339,1.857-0.391c0.658-0.052,1.261-0.078,1.808-0.078H210.554z M209.889,40.144
	c-0.326,0-0.733,0.017-1.222,0.049c-0.489,0.033-0.958,0.111-1.407,0.235c-0.45,0.124-0.834,0.316-1.154,0.577
	c-0.319,0.261-0.479,0.619-0.479,1.075c0,0.3,0.062,0.557,0.186,0.772c0.123,0.215,0.29,0.391,0.498,0.528
	c0.208,0.137,0.44,0.235,0.694,0.293c0.254,0.058,0.511,0.088,0.772,0.088c0.47,0,0.877-0.078,1.222-0.235
	c0.345-0.156,0.636-0.368,0.87-0.635c0.235-0.267,0.407-0.58,0.518-0.938c0.11-0.358,0.166-0.739,0.166-1.144v-0.665H209.889z"/>
<path class="st3" d="M102.744,12.483h4.809c0.665,0,1.306,0.062,1.925,0.186c0.619,0.124,1.17,0.336,1.652,0.635
	c0.482,0.3,0.867,0.704,1.153,1.212c0.287,0.508,0.43,1.153,0.43,1.935c0,1.004-0.277,1.844-0.831,2.522
	c-0.554,0.678-1.346,1.088-2.375,1.232l3.675,6.119h-2.971l-3.206-5.865h-1.799v5.865h-2.463V12.483z M107.123,18.348
	c0.352,0,0.704-0.016,1.055-0.049c0.352-0.032,0.674-0.111,0.968-0.235c0.293-0.124,0.531-0.313,0.713-0.567
	c0.182-0.254,0.274-0.609,0.274-1.065c0-0.404-0.085-0.73-0.254-0.977c-0.17-0.248-0.391-0.433-0.665-0.557
	c-0.274-0.124-0.577-0.205-0.909-0.244c-0.332-0.039-0.655-0.059-0.968-0.059h-2.131v3.754H107.123z M114.102,22.101
	c0.039,0.456,0.15,0.886,0.332,1.29c0.182,0.404,0.423,0.752,0.723,1.046c0.3,0.293,0.645,0.525,1.036,0.694
	c0.391,0.17,0.814,0.254,1.271,0.254c0.691,0,1.287-0.159,1.789-0.479c0.501-0.319,0.883-0.687,1.144-1.104l0.997,0.821
	c-0.547,0.691-1.15,1.186-1.808,1.486c-0.658,0.3-1.365,0.45-2.121,0.45c-0.678,0-1.307-0.121-1.886-0.362
	c-0.58-0.241-1.079-0.577-1.496-1.007c-0.417-0.43-0.746-0.938-0.987-1.525c-0.241-0.586-0.362-1.225-0.362-1.916
	c0-0.691,0.117-1.329,0.352-1.916c0.235-0.587,0.56-1.095,0.977-1.525c0.417-0.43,0.906-0.765,1.466-1.007
	c0.56-0.241,1.166-0.362,1.818-0.362c0.691,0,1.31,0.124,1.857,0.371c0.547,0.248,1.007,0.577,1.378,0.987
	c0.371,0.41,0.655,0.893,0.85,1.447c0.196,0.554,0.293,1.144,0.293,1.769v0.587H114.102z M120.319,21.045
	c0-0.873-0.261-1.58-0.782-2.121c-0.521-0.541-1.251-0.811-2.189-0.811c-0.417,0-0.821,0.082-1.212,0.245
	c-0.391,0.163-0.733,0.381-1.026,0.655c-0.293,0.274-0.528,0.587-0.704,0.938c-0.176,0.352-0.264,0.717-0.264,1.095H120.319z
	 M123.056,28.161c0.378,0.508,0.87,0.916,1.476,1.222c0.606,0.306,1.28,0.459,2.023,0.459c0.652,0,1.205-0.095,1.662-0.284
	c0.456-0.189,0.824-0.446,1.105-0.772c0.28-0.326,0.482-0.707,0.606-1.144c0.124-0.437,0.186-0.903,0.186-1.398v-1.642h-0.039
	c-0.417,0.626-0.926,1.069-1.525,1.329c-0.6,0.261-1.232,0.391-1.896,0.391c-0.665,0-1.287-0.117-1.867-0.352
	c-0.58-0.235-1.085-0.557-1.515-0.968c-0.43-0.411-0.769-0.902-1.016-1.476c-0.248-0.573-0.371-1.192-0.371-1.857
	s0.117-1.284,0.352-1.857c0.235-0.573,0.557-1.075,0.968-1.505c0.41-0.43,0.899-0.765,1.466-1.007
	c0.567-0.241,1.189-0.362,1.867-0.362c0.274,0,0.564,0.026,0.87,0.078c0.306,0.052,0.612,0.144,0.919,0.274
	c0.306,0.13,0.609,0.31,0.909,0.538c0.3,0.228,0.58,0.518,0.841,0.87h0.039v-1.525h1.29v9.071c0,0.495-0.062,1.023-0.186,1.583
	c-0.124,0.56-0.365,1.075-0.723,1.544c-0.359,0.469-0.857,0.86-1.496,1.173c-0.639,0.313-1.473,0.469-2.502,0.469
	c-0.912,0-1.727-0.15-2.444-0.449c-0.717-0.3-1.368-0.762-1.955-1.388L123.056,28.161z M123.29,21.632
	c0,0.482,0.088,0.935,0.264,1.358c0.176,0.424,0.417,0.795,0.723,1.114c0.306,0.319,0.665,0.574,1.075,0.762
	c0.41,0.189,0.857,0.284,1.339,0.284c0.469,0,0.916-0.085,1.339-0.254c0.423-0.169,0.798-0.407,1.124-0.713
	c0.326-0.306,0.577-0.674,0.752-1.104c0.176-0.43,0.257-0.912,0.245-1.447c0-0.482-0.078-0.935-0.235-1.359
	c-0.157-0.423-0.385-0.795-0.684-1.114c-0.3-0.319-0.665-0.573-1.095-0.762c-0.43-0.189-0.912-0.284-1.447-0.284
	c-0.482,0-0.929,0.095-1.339,0.284c-0.411,0.189-0.769,0.443-1.075,0.762c-0.306,0.319-0.548,0.691-0.723,1.114
	C123.378,20.697,123.29,21.15,123.29,21.632z M134.452,13.656c0,0.274-0.098,0.499-0.293,0.674c-0.195,0.176-0.41,0.264-0.645,0.264
	c-0.235,0-0.45-0.088-0.645-0.264c-0.195-0.176-0.293-0.401-0.293-0.674c0-0.274,0.098-0.498,0.293-0.674
	c0.196-0.176,0.411-0.264,0.645-0.264c0.235,0,0.45,0.088,0.645,0.264C134.354,13.158,134.452,13.382,134.452,13.656z
	 M134.159,26.324h-1.29v-9.149h1.29V26.324z M144.794,21.749c0,0.691-0.121,1.329-0.362,1.916c-0.241,0.587-0.576,1.095-1.007,1.525
	c-0.43,0.43-0.942,0.766-1.535,1.007c-0.593,0.241-1.248,0.362-1.964,0.362c-0.704,0-1.352-0.121-1.945-0.362
	c-0.593-0.241-1.104-0.577-1.535-1.007c-0.43-0.43-0.766-0.938-1.007-1.525c-0.241-0.586-0.362-1.225-0.362-1.916
	c0-0.691,0.12-1.329,0.362-1.916c0.241-0.587,0.577-1.095,1.007-1.525c0.43-0.43,0.942-0.765,1.535-1.007
	c0.593-0.241,1.242-0.362,1.945-0.362c0.717,0,1.371,0.121,1.964,0.362c0.593,0.241,1.105,0.577,1.535,1.007
	c0.431,0.43,0.765,0.938,1.007,1.525S144.794,21.059,144.794,21.749z M143.386,21.749c0-0.508-0.081-0.984-0.245-1.427
	c-0.163-0.443-0.394-0.827-0.694-1.153c-0.3-0.326-0.661-0.583-1.085-0.772c-0.423-0.189-0.903-0.284-1.436-0.284
	c-0.535,0-1.014,0.095-1.437,0.284c-0.424,0.189-0.782,0.447-1.075,0.772c-0.293,0.326-0.521,0.711-0.684,1.153
	c-0.163,0.443-0.244,0.919-0.244,1.427s0.081,0.984,0.244,1.427c0.163,0.443,0.391,0.828,0.684,1.153
	c0.293,0.326,0.652,0.583,1.075,0.772c0.423,0.189,0.902,0.284,1.437,0.284c0.534,0,1.013-0.094,1.436-0.284
	c0.424-0.189,0.786-0.446,1.085-0.772c0.3-0.326,0.53-0.71,0.694-1.153C143.304,22.733,143.386,22.257,143.386,21.749z
	 M139.906,15.298h-1.154l1.955-2.815h1.779L139.906,15.298z M146.65,17.175c0.026,0.248,0.042,0.492,0.049,0.733
	c0.006,0.241,0.01,0.486,0.01,0.733h0.039c0.143-0.247,0.326-0.475,0.548-0.684c0.221-0.208,0.469-0.387,0.743-0.538
	c0.274-0.15,0.564-0.267,0.87-0.352c0.306-0.085,0.609-0.127,0.909-0.127c1.173,0,2.039,0.31,2.6,0.929
	c0.56,0.619,0.841,1.502,0.841,2.649v5.806h-1.29v-5.063c0-1.017-0.176-1.795-0.528-2.336c-0.352-0.541-1.004-0.811-1.955-0.811
	c-0.065,0-0.248,0.026-0.548,0.078c-0.3,0.052-0.616,0.195-0.948,0.43c-0.332,0.235-0.629,0.587-0.89,1.056
	c-0.261,0.469-0.391,1.121-0.391,1.955v4.692h-1.29v-7.135c0-0.248-0.01-0.56-0.029-0.938c-0.02-0.378-0.043-0.736-0.068-1.075
	H146.65z"/>
<path class="st4" d="M77.02,84.173c-0.757,0-1.509-0.316-2.043-0.932c-0.979-1.128-0.858-2.835,0.27-3.814
	C84.364,71.515,89.593,60.061,89.593,48l0-0.09c0-1.493,1.21-2.704,2.704-2.704S95,46.417,95,47.91l0,0.071
	c0,13.646-5.908,26.59-16.21,35.529C78.279,83.955,77.648,84.173,77.02,84.173z M3.704,50.748C2.21,50.748,1,49.538,1,48.045V48
	c0-13.61,5.895-26.542,16.174-35.479c1.127-0.98,2.835-0.861,3.814,0.266c0.98,1.127,0.861,2.834-0.266,3.814
	C11.624,24.511,6.407,35.956,6.407,48v0.045C6.407,49.538,5.197,50.748,3.704,50.748z"/>
<path class="st0" d="M48,95c-5.258,0-10.422-0.863-15.349-2.564c-1.411-0.487-2.16-2.027-1.673-3.438
	c0.487-1.412,2.026-2.16,3.438-1.673c4.357,1.505,8.927,2.268,13.583,2.268c7.319,0,14.515-1.927,20.81-5.572
	c1.292-0.748,2.946-0.307,3.694,0.985c0.748,1.292,0.307,2.946-0.985,3.694C64.403,92.821,56.269,95,48,95z M91.485,42.234
	c-1.269,0-2.401-0.898-2.651-2.19c-2.289-11.821-9.614-22.066-20.097-28.108c-1.294-0.746-1.738-2.399-0.993-3.692
	s2.4-1.738,3.692-0.993c11.842,6.825,20.118,18.403,22.705,31.765c0.284,1.466-0.674,2.884-2.14,3.168
	C91.828,42.218,91.655,42.234,91.485,42.234z"/>
<path class="st5" d="M25.799,12.366c-0.932,0-1.839-0.483-2.341-1.347c-0.75-1.291-0.31-2.946,0.981-3.695
	C31.567,3.187,39.714,1,48,1c5.242,0,10.391,0.857,15.304,2.549c1.412,0.486,2.162,2.024,1.676,3.436
	c-0.486,1.412-2.024,2.163-3.436,1.676C57.198,7.165,52.641,6.407,48,6.407c-7.334,0-14.543,1.934-20.847,5.593
	C26.726,12.248,26.259,12.366,25.799,12.366z"/>
<path class="st1" d="M25.872,89.087c-0.459,0-0.924-0.117-1.35-0.363c-11.836-6.837-20.1-18.424-22.673-31.788
	c-0.282-1.466,0.678-2.884,2.144-3.166c1.467-0.282,2.883,0.677,3.166,2.144C9.435,67.738,16.75,77.99,27.227,84.042
	c1.293,0.747,1.735,2.401,0.989,3.693C27.715,88.603,26.806,89.087,25.872,89.087z"/>
<path class="st6" d="M34.059,19.218c5.148,0,8.594,3.921,8.594,8.554c0,3.327-2.257,6.376-4.713,7.208l3.802,7.921
	c0.198,0.435,0.317,0.871,0.317,1.307c0,1.545-1.346,2.654-2.693,2.654c-0.871,0-1.822-0.436-2.337-1.505l-4.594-9.267h-2.257v7.921
	c0,1.861-0.95,2.851-2.693,2.851c-1.703,0-2.653-0.99-2.653-2.851V22.347c0-2.099,1.03-3.129,3.129-3.129H34.059z M30.178,31.377
	h3.921c2.099,0,3.247-1.584,3.247-3.485c0-1.822-1.148-3.366-3.247-3.366h-3.921V31.377z M69.405,19.218
	c1.901,0,2.891,0.911,2.891,2.654s-0.99,2.654-2.891,2.654h-3.366V43.97c0,1.901-0.832,2.891-2.614,2.891
	c-1.743,0-2.693-0.95-2.693-2.812V24.526h-3.287c-1.941,0-2.891-0.872-2.891-2.693c0-1.743,0.95-2.614,2.891-2.614H69.405z
	 M63.835,71.59c4.511,0,6.646-2.101,7.335-4.408h-7.921c-1.481,0-2.273-0.792-2.273-2.238c0-1.377,0.792-2.169,2.273-2.169h10.434
	c1.584,0,2.479,1.067,2.479,2.376c0,5.751-5.579,11.054-12.328,11.054c-7.128,0-12.535-4.959-12.535-12.328
	s5.406-12.638,12.535-12.638c3.306,0,6.44,1.033,8.471,3.031c0.758,0.723,0.999,1.343,0.999,1.929c0,1.24-1.102,2.342-2.342,2.342
	c-0.689,0-1.274-0.31-1.859-0.895c-1.205-1.206-3.306-1.756-5.269-1.756c-4.373,0-7.886,3.271-7.886,7.989
	C55.949,68.526,59.462,71.59,63.835,71.59z M40.02,53.442c0.517-1.205,1.343-1.79,2.583-1.79c1.343,0,2.548,0.826,2.548,2.789
	v18.906c0,1.687-0.723,2.514-2.273,2.514s-2.273-0.827-2.273-2.514v-9.78l-4.649,10.813c-0.413,0.93-1.378,1.481-2.307,1.481
	c-0.895,0-1.963-0.551-2.376-1.481l-4.58-10.813v9.78c0,1.687-0.723,2.514-2.273,2.514c-1.55,0-2.273-0.827-2.273-2.514V54.441
	c0-1.963,1.171-2.789,2.548-2.789c1.24,0,2.066,0.585,2.583,1.79l6.371,14.842L40.02,53.442z"/>
</svg>
